<svg xmlns="http://www.w3.org/2000/svg" viewBox="0 0 20 20">
  <path
    d="m1.422186,0.173679c-0.063791,0.063747 -0.083495,1.661239 -0.083495,6.765998l0,6.682505l4.19779,3.147563c3.825312,2.868233 4.221393,3.147518 4.46352,3.147518c0.242126,0 0.638208,-0.279285 4.463518,-3.147518l4.197789,-3.147563l0,-6.682505c0,-5.104759 -0.019705,-6.702251 -0.083496,-6.765998c-0.121214,-0.121258 -17.034411,-0.121258 -17.155627,0m11.46896,7.664695c1.106006,1.946629 1.994007,3.566684 1.973307,3.600204c-0.0207,0.033477 -0.534272,0.060888 -1.141299,0.060888l-1.103712,0l-1.282914,-2.243583c-0.705637,-1.233976 -1.309373,-2.239554 -1.341723,-2.234574c-0.032307,0.00498 -0.633747,1.01463 -1.336483,2.243626l-1.27776,2.23453l-1.10371,0c-0.607029,0 -1.12112,-0.028279 -1.142514,-0.062839c-0.021351,-0.034559 0.25356,-0.574592 0.610882,-1.200067c0.357323,-0.625476 1.267583,-2.226043 2.022763,-3.556766l1.373034,-2.41958l0.869596,0.019444l0.869596,0.019445l2.01094,3.53927"
  />
</svg>